<svg width="14" height="20" viewBox="0 0 14 20" fill="none" xmlns="http://www.w3.org/2000/svg">
<path d="M0.75 3.95C0.75 2.83 0.75 2.27 0.968 1.842C1.15974 1.46569 1.46569 1.15974 1.842 0.968C2.27 0.75 2.83 0.75 3.95 0.75H9.55C10.67 0.75 11.23 0.75 11.658 0.968C12.0343 1.15974 12.3403 1.46569 12.532 1.842C12.75 2.27 12.75 2.83 12.75 3.95V17.255C12.75 17.741 12.75 17.984 12.649 18.117C12.6054 18.1748 12.5497 18.2225 12.4858 18.2567C12.4219 18.2909 12.3513 18.3108 12.279 18.315C12.112 18.325 11.91 18.19 11.506 17.921L6.75 14.75L1.994 17.92C1.59 18.19 1.388 18.325 1.22 18.315C1.14784 18.3106 1.07748 18.2907 1.01377 18.2565C0.950068 18.2223 0.894535 18.1747 0.851 18.117C0.75 17.984 0.75 17.741 0.75 17.255V3.95Z" stroke="#FF3381" stroke-width="1.5" stroke-linecap="round" stroke-linejoin="round"/>
</svg>
